<svg width="42" height="42" viewBox="0 0 42 42" fill="none" xmlns="http://www.w3.org/2000/svg">
<circle cx="21" cy="21" r="21" fill="#F7F7F7"/>
<path d="M18.25 10C17.5207 10 16.8212 10.2842 16.3055 10.79C15.7897 11.2958 15.5 11.9818 15.5 12.6972V15.8439H12.75C12.0207 15.8439 11.3212 16.1281 10.8055 16.6339C10.2897 17.1397 10 17.8257 10 18.5411V23.9085C10 24.6238 10.2897 25.3098 10.8055 25.8157C11.3212 26.3215 12.0207 26.6056 12.75 26.6056H15.5V29.3028C15.5 30.0182 15.7897 30.7042 16.3055 31.21C16.8212 31.7158 17.5207 32 18.25 32H23.75C24.4793 32 25.1788 31.7158 25.6945 31.21C26.2103 30.7042 26.5 30.0182 26.5 29.3028V26.6056H29.25C29.9793 26.6056 30.6788 26.3215 31.1945 25.8157C31.7103 25.3098 32 24.6238 32 23.9085V18.5141C32 17.7988 31.7103 17.1127 31.1945 16.6069C30.6788 16.1011 29.9793 15.8169 29.25 15.8169H26.5V12.6972C26.5 11.9818 26.2103 11.2958 25.6945 10.79C25.1788 10.2842 24.4793 10 23.75 10H18.25Z" fill="#F02752"/>
</svg>
